<svg xmlns="http://www.w3.org/2000/svg" viewBox="0 0 96 96" role="img" aria-label="Dylan Games">
  <rect width="96" height="96" rx="21" fill="#101114" />
  <g
    fill="none"
    stroke="#f7f8fb"
    stroke-linecap="round"
    stroke-linejoin="round"
    stroke-width="5.6"
    transform="translate(18 13) scale(2.5)"
  >
    <path d="M10 14.66v1.626a2 2 0 0 1-.976 1.696A5 5 0 0 0 7 21.978" />
    <path d="M14 14.66v1.626a2 2 0 0 0 .976 1.696A5 5 0 0 1 17 21.978" />
    <path d="M18 9h1.5a1 1 0 0 0 0-5H18" />
    <path d="M4 22h16" />
    <path d="M6 9a6 6 0 0 0 12 0V3a1 1 0 0 0-1-1H7a1 1 0 0 0-1 1z" />
    <path d="M6 9H4.5a1 1 0 0 1 0-5H6" />
  </g>
</svg>
