<svg width="512" height="512" viewBox="0 0 512 512" fill="none" xmlns="http://www.w3.org/2000/svg"><circle cx="256" cy="256" r="224" fill="#272727"/><g transform="translate(0 -60)" stroke="#fff" stroke-linecap="round" stroke-linejoin="round"><path d="M151 215c-24 0-44 17-49 41l-14 85c-7 41 17 75 55 75 22 0 35-11 51-30l19-22c9-11 23-17 38-17h10c15 0 29 6 38 17l19 22c16 19 29 30 51 30 38 0 62-34 55-75l-14-85c-5-24-25-41-49-41z" stroke-width="24"/><path d="M168 287h50m-25-25v50" stroke-width="18"/><circle cx="314" cy="276" r="11" fill="#fff" stroke="none"/><circle cx="352" cy="298" r="11" fill="#fff" stroke="none"/></g></svg>
